<?xml version="1.0" encoding="UTF-8"?>
<svg id="Layer_2" data-name="Layer 2" xmlns="http://www.w3.org/2000/svg" viewBox="0 0 1373.91 1321.07">
  <defs>
    <style>
      .cls-1 {
        fill: #243e87;
      }

      .cls-2 {
        fill: #3b8a41;
      }
    </style>
  </defs>
  <g id="Layer_1-2" data-name="Layer 1">
    <path class="cls-1" d="M563.66,1315.2h248.07c-55.78-52.84-76.33-104.22-76.33-220.18v-309.72c0-52.84,27.89-79.26,82.2-79.26h322.93c120.36,0,173.21,20.55,228.99,73.39v-237.79c-55.78,52.84-108.62,73.39-228.99,73.39h-322.93c-55.78,0-82.2-26.42-82.2-79.26V224.58c0-114.49,22.02-167.34,76.33-220.18h-248.07c55.78,52.84,76.33,104.22,76.33,220.18v311.19c0,52.84-27.89,79.26-82.2,79.26H234.86c-118.9,0-173.21-20.55-228.99-73.39v237.79c55.78-52.84,108.62-73.39,228.99-73.39h322.93c55.78,0,82.2,26.42,82.2,79.26v311.19c0,114.49-22.02,165.87-76.33,218.71"/>
    <path class="cls-2" d="M405.13,1321.07c108.62-22.02,174.67-107.15,174.67-221.65v-277.42c0-45.5-13.21-58.71-60.18-58.71H231.92c-118.9,0-206.97,63.12-231.92,168.8h405.13v388.98ZM1373.91,388.98h-405.13V0c-108.62,22.02-174.67,107.15-174.67,221.65v275.96c0,45.5,13.21,58.71,60.18,58.71h287.7c120.36,1.47,208.44-63.12,231.92-167.34M231.92,557.79h287.7c46.97,0,60.18-13.21,60.18-58.71V221.65c0-114.49-66.05-199.63-174.67-221.65v388.98H0c23.49,104.22,111.56,168.8,231.92,168.8M794.11,1097.96v-275.96c0-45.5,13.21-58.71,60.18-58.71h287.7c120.36,0,208.44,63.12,231.92,168.8h-405.13v388.98c-108.62-23.49-174.67-107.15-174.67-223.11"/>
  </g>
</svg>