<?xml version="1.0" encoding="UTF-8"?>
<svg id="Layer_2" data-name="Layer 2" xmlns="http://www.w3.org/2000/svg" viewBox="0 0 1603.45 291.6">
  <defs>
    <style>
      .cls-1 {
        fill: #243e87;
      }

      .cls-2 {
        fill: #3b8a41;
      }
    </style>
  </defs>
  <g id="Layer_1-2" data-name="Layer 1">
    <path class="cls-1" d="M1010.54,250.77c3.56,0,11.02-1.3,22.36-7.78l18.14-10.69v18.47c11.66-3.89,29.48-7.78,49.57-11.02v-7.45l-9.72-.97c-11.34-.97-12.96-2.59-12.96-18.14V40.5c-12.31,3.56-33.37,7.78-49.25,10.04v7.45c20.74,1.62,22.68,2.59,22.68,21.06v40.18c-7.13-2.27-14.9-2.92-18.47-2.92-42.77,0-79.05,32.08-79.05,72.25-.32,41.15,32.08,62.21,56.7,62.21M374.54,247.21h86.18v-8.42c-28.19-1.62-30.46-3.56-30.46-27.86v-44.71l22.03,5.51c3.24.32,8.75.32,13.28-.32,36.94-4.86,59.61-27.54,59.61-60.26,0-18.14-7.13-31.75-20.09-41.47-11.34-8.1-27.86-11.99-51.19-11.99h-76.14v7.78c22.68,1.62,24.3,3.89,24.3,29.16v115.99c0,23.98-2.59,26.24-27.54,28.19-.32,0-.32,8.42,0,8.42h0ZM451,159.41c-8.75,0-17.17-1.62-20.74-3.24v-72.25c0-7.78.97-11.02,2.92-12.96s7.78-3.56,15.55-3.56c27.86,0,44.39,16.85,44.39,45.04.32,29.81-16.2,46.98-42.12,46.98M529.73,247.21h72.57v-7.78c-23-1.62-24.3-3.56-24.3-22.36v-53.46c6.48-15.55,15.55-23.33,22.68-23.33,5.18,0,8.75,1.62,13.28,5.83,1.3,1.3,2.59,1.62,4.21,1.62,1.3,0,2.59-.32,3.89-.97,6.8-2.59,10.69-8.75,10.69-15.55,0-7.45-7.45-15.23-18.14-15.23-13.93,0-26.57,15.55-35.96,30.78h-.65v-31.43c-15.55,5.83-29.48,9.4-45.04,11.66v7.45c16.85,2.59,18.14,3.56,18.14,21.38v60.91c0,18.79-2.27,20.41-21.38,22.36v8.1ZM694.64,250.77c31.1,0,66.42-22.36,66.42-69.66,0-35.64-27.86-65.12-66.09-65.12-28.84,0-67.39,22.36-67.39,69.98,0,32.72,24.3,64.8,67.07,64.8M697.88,240.73c-23.98,0-39.53-27.22-39.53-63.83,0-33.37,15.55-50.87,33.37-50.87,24.95,0,38.56,26.57,38.56,61.88,0,41.15-14.9,52.81-32.4,52.81M1024.15,231.98c-18.47,0-40.5-16.52-40.5-51.19,0-42.44,24.95-53.46,38.23-53.46,10.69,0,22.36,4.86,29.16,14.9v80.67c-7.45,5.18-16.85,9.07-26.89,9.07M916.26,89.1c9.07,0,16.52-7.13,16.52-15.55,0-9.4-7.45-16.52-16.2-16.52s-16.85,7.13-16.85,16.52c0,8.42,7.45,15.55,16.52,15.55M1161.52,250.77c10.04,0,31.1-5.18,50.22-28.84l-4.86-6.48c-11.02,9.72-22.36,14.26-34.34,14.26-21.38,0-44.39-16.52-44.39-54.43,34.99-1.3,72.25-3.89,77.76-4.86,6.16-.97,7.45-3.89,7.45-9.72,0-23.33-20.41-45.04-46.01-45.04-15.88,0-31.43,7.78-44.71,21.38-12.96,13.28-20.41,31.1-20.41,51.19-.32,33.7,21.71,62.53,59.29,62.53M1129.77,163.29c3.89-23.65,16.85-35.96,30.13-35.96,15.88,0,25.27,13.93,25.27,29.16,0,4.54-1.62,5.51-7.13,5.83-16.52.97-32.4.97-48.28.97M1219.84,247.21h67.39v-7.78c-17.17-1.62-18.79-2.92-18.79-22.36v-68.69c8.75-7.45,20.09-13.93,31.1-13.93,18.47,0,26.57,11.66,26.57,32.4v48.6c0,20.09-2.27,22.36-19.12,23.98v7.78h64.8v-7.78c-17.5-1.94-19.12-2.92-19.12-22.36v-56.38c0-28.19-14.9-44.71-39.2-44.71-8.75,0-16.52,3.24-24.95,8.75-7.78,4.86-13.61,9.07-19.76,13.61v-23.33c-14.26,5.51-29.48,9.4-45.04,11.99v7.45c16.52,2.92,18.14,4.54,18.14,22.03v60.26c0,19.12-1.62,20.41-21.71,22.68,0,0-.32,7.78-.32,7.78ZM1435.3,250.77c17.82,0,37.91-12.96,50.22-28.51l-5.51-6.48c-12.31,10.69-22.03,13.93-34.67,13.93-16.2,0-45.04-13.61-45.04-53.78,0-30.78,16.85-45.68,35.32-45.68,10.04,0,21.06,3.24,30.46,12.31,2.59,2.27,3.89,3.24,5.83,3.24,3.56,0,10.69-6.8,10.69-13.28,0-3.24-.97-5.83-5.18-9.07-4.86-3.89-14.58-7.45-26.89-7.45-11.66,0-29.81,4.86-46.66,16.85-19.76,14.26-30.46,34.34-30.46,56.38,0,32.08,22.68,61.56,61.88,61.56M1551.61,250.77c10.04,0,31.1-5.18,50.22-28.84l-4.86-6.48c-11.02,9.72-22.36,14.26-34.34,14.26-21.38,0-44.39-16.52-44.39-54.43,34.99-1.3,72.25-3.89,77.76-4.86,6.16-.97,7.45-3.89,7.45-9.72,0-23.33-20.41-45.04-46.01-45.04-15.88,0-31.75,7.78-44.71,21.38-12.96,12.96-20.41,30.78-20.41,51.19-.65,33.7,21.38,62.53,59.29,62.53M1519.86,163.29c4.21-23.65,16.85-35.96,30.13-35.96,15.88,0,25.27,13.93,25.27,29.16,0,4.54-1.62,5.51-7.13,5.83-16.52.97-32.4.97-48.28.97M758.15,128.63c10.04,2.27,12.64,4.54,19.44,19.76,14.9,34.02,28.51,67.39,42.12,102.71h8.75c17.5-43.42,32.72-79.38,43.09-101.73,8.1-17.17,11.34-20.41,19.44-20.41,8.75,0,11.66,5.18,11.66,21.38v66.09c0,19.76-2.27,21.71-21.38,23.33v7.78h69.66v-7.78c-19.12-1.62-21.38-3.89-21.38-23.33v-101.09c-18.79,3.56-35.32,4.54-85.53,4.54v8.75c11.99,1.62,16.2,2.92,16.2,8.1,0,2.27-.97,5.51-2.27,9.4-6.16,19.12-16.2,45.36-25.92,67.71-8.1-20.09-20.09-49.9-27.86-69.98-1.62-3.89-2.59-6.8-2.59-8.75,0-3.56,3.89-4.86,14.58-6.48v-8.75h-58.64v8.75h.65ZM124.41,290.3h54.76c-12.31-11.66-16.85-23-16.85-48.6v-68.36c0-11.66,6.16-17.5,18.14-17.5h71.28c26.57,0,38.23,4.54,50.54,16.2v-52.49c-12.31,11.66-23.98,16.2-50.54,16.2h-71.28c-12.31,0-18.14-5.83-18.14-17.5V49.57c0-25.27,4.86-36.94,16.85-48.6h-54.76c12.31,11.66,16.85,23,16.85,48.6v68.69c0,11.66-6.16,17.5-18.14,17.5H51.84c-26.24,0-38.23-4.54-50.54-16.2v52.49c12.31-11.66,23.98-16.2,50.54-16.2h71.28c12.31,0,18.14,5.83,18.14,17.5v68.69c0,25.27-4.86,36.61-16.85,48.28"/>
    <path class="cls-2" d="M89.42,291.6c23.98-4.86,38.56-23.65,38.56-48.92v-61.23c0-10.04-2.92-12.96-13.28-12.96h-63.5c-26.24,0-45.68,13.93-51.19,37.26h89.42v85.86ZM303.26,85.86h-89.42V0c-23.98,4.86-38.56,23.65-38.56,48.92v60.91c0,10.04,2.92,12.96,13.28,12.96h63.5c26.57.32,46.01-13.93,51.19-36.94M51.19,123.12h63.5c10.37,0,13.28-2.92,13.28-12.96v-61.23c0-25.27-14.58-44.06-38.56-48.92v85.86H0c5.18,23,24.62,37.26,51.19,37.26M175.28,242.35v-60.91c0-10.04,2.92-12.96,13.28-12.96h63.5c26.57,0,46.01,13.93,51.19,37.26h-89.42v85.86c-23.98-5.18-38.56-23.65-38.56-49.25"/>
  </g>
</svg>