<svg xmlns="http://www.w3.org/2000/svg" id="Layer_2" viewBox="0 0 700.05 223.82"><defs><style>.cls-1{fill:#004fa3;}.cls-2{fill:#231f20;}.cls-3{fill:#8b0e04;}</style></defs><circle class="cls-3" cx="171.89" cy="170.86" r="52.97" transform="translate(-27.2 309.07) rotate(-79.6)"></circle><rect class="cls-1" y="153.51" width="62.71" height="47.46"></rect><rect class="cls-1" x="280.43" y="153.84" width="62.71" height="47.46"></rect><rect class="cls-1" x="148.44" width="47.46" height="62.71"></rect><rect class="cls-1" x="241.36" y="51.62" width="62.71" height="47.46" transform="translate(23.03 208.42) rotate(-43.5)"></rect><rect class="cls-1" x="48.27" y="45.01" width="47.45" height="62.71" transform="translate(-32.96 76.03) rotate(-46.5)"></rect><path class="cls-3" d="m78.41,115.17s-5.77,10.19-9.05,18.14c-3.28,7.95-6.65,20.2-6.65,20.2l58.92.81-43.22-39.16Z"></path><path class="cls-3" d="m111.08,80.74s8.2-5.57,18.62-10.53c10.41-4.97,18.75-7.5,18.75-7.5l1.92,60.38-39.28-42.34Z"></path><path class="cls-3" d="m195.9,62.71l-1.81,60.51,39.55-43.5s-7.59-5.24-18.4-10.08c-10.81-4.84-19.33-6.93-19.33-6.93Z"></path><path class="cls-3" d="m266.31,114.15l-43.67,41.12,57.79-1.43s-1.75-10.24-5.35-20c-3.6-9.77-8.77-19.69-8.77-19.69Z"></path><g><path class="cls-2" d="m386.74,24.1c-.23,0-.32.09-.41.37l-2.48,6.58c-.46,1.15-.69,2.25-.69,2.81,0,.83.41,1.43,1.84,1.43h.69c.55,0,.69.09.69.37,0,.37-.28.46-.78.46-1.47,0-3.45-.14-4.88-.14-.51,0-3.04.14-5.43.14-.6,0-.87-.09-.87-.46,0-.28.18-.37.55-.37.41,0,1.06-.05,1.43-.09,2.12-.28,2.99-1.84,3.91-4.14l11.55-28.89c.55-1.33.83-1.84,1.29-1.84.41,0,.69.41,1.15,1.47,1.1,2.53,8.46,21.3,11.41,28.29,1.75,4.14,3.08,4.78,4.05,5.01.69.14,1.38.18,1.93.18.37,0,.6.05.6.37,0,.37-.41.46-2.12.46s-5.01,0-8.69-.09c-.83-.05-1.38-.05-1.38-.37,0-.28.18-.37.64-.41.32-.09.64-.51.41-1.06l-3.68-9.75c-.09-.23-.23-.32-.46-.32h-10.26Zm9.38-2.3c.23,0,.28-.14.23-.28l-4.14-11.36c-.05-.18-.09-.41-.23-.41s-.23.23-.28.41l-4.23,11.32c-.05.18,0,.32.18.32h8.46Z"></path><path class="cls-2" d="m432.05,22.77c0,5.89,0,9.06.97,9.89.78.69,1.98,1.01,5.57,1.01,2.44,0,4.23-.05,5.38-1.29.55-.6,1.1-1.89,1.2-2.76.05-.41.14-.69.51-.69.32,0,.37.23.37.78,0,.51-.32,3.96-.69,5.29-.28,1.01-.51,1.24-2.9,1.24-3.31,0-5.7-.09-7.77-.14-2.07-.09-3.73-.14-5.61-.14-.51,0-1.52.05-2.62.05-1.06.05-2.25.09-3.17.09-.6,0-.92-.14-.92-.46,0-.23.18-.37.74-.37.69,0,1.24-.09,1.66-.18.92-.18,1.15-1.2,1.33-2.53.23-1.93.23-5.57.23-9.8v-8.1c0-6.99,0-8.28-.09-9.75-.09-1.56-.46-2.3-1.98-2.62-.37-.09-.92-.14-1.52-.14-.51,0-.78-.09-.78-.41s.32-.41,1.01-.41c2.16,0,5.06.14,6.3.14,1.1,0,4.46-.14,6.26-.14.64,0,.97.09.97.41s-.28.41-.83.41c-.51,0-1.24.05-1.79.14-1.24.23-1.61,1.01-1.7,2.62-.09,1.47-.09,2.76-.09,9.75v8.1Z"></path><path class="cls-2" d="m466.08,24.1c-.23,0-.32.09-.41.37l-2.48,6.58c-.46,1.15-.69,2.25-.69,2.81,0,.83.41,1.43,1.84,1.43h.69c.55,0,.69.09.69.37,0,.37-.28.46-.78.46-1.47,0-3.45-.14-4.88-.14-.51,0-3.04.14-5.43.14-.6,0-.87-.09-.87-.46,0-.28.18-.37.55-.37.41,0,1.06-.05,1.43-.09,2.12-.28,2.99-1.84,3.91-4.14l11.55-28.89c.55-1.33.83-1.84,1.29-1.84.41,0,.69.41,1.15,1.47,1.1,2.53,8.46,21.3,11.41,28.29,1.75,4.14,3.08,4.78,4.05,5.01.69.14,1.38.18,1.93.18.37,0,.6.05.6.37,0,.37-.41.46-2.12.46s-5.01,0-8.69-.09c-.83-.05-1.38-.05-1.38-.37,0-.28.18-.37.64-.41.32-.09.64-.51.41-1.06l-3.68-9.75c-.09-.23-.23-.32-.46-.32h-10.26Zm9.38-2.3c.23,0,.28-.14.23-.28l-4.14-11.36c-.05-.18-.09-.41-.23-.41s-.23.23-.28.41l-4.23,11.32c-.05.18,0,.32.18.32h8.46Z"></path><path class="cls-2" d="m502.66,35.55c-.74-.32-.87-.55-.87-1.56,0-2.53.18-5.29.23-6.03.05-.69.18-1.2.55-1.2.41,0,.46.41.46.78,0,.6.18,1.56.41,2.35,1.01,3.4,3.73,4.65,6.58,4.65,4.14,0,6.16-2.81,6.16-5.24,0-2.25-.69-4.42-4.51-7.36l-2.12-1.66c-5.06-3.96-6.81-7.18-6.81-10.9,0-5.06,4.23-8.69,10.63-8.69,2.99,0,4.92.46,6.12.78.41.09.64.23.64.55,0,.6-.18,1.93-.18,5.52,0,1.01-.14,1.38-.51,1.38-.32,0-.46-.28-.46-.83,0-.41-.23-1.84-1.2-3.04-.69-.87-2.02-2.25-5.01-2.25-3.4,0-5.47,1.98-5.47,4.74,0,2.12,1.06,3.73,4.88,6.62l1.29.97c5.52,4.28,7.54,7.36,7.54,11.73,0,2.67-1.01,5.84-4.32,8-2.3,1.47-4.88,1.89-7.31,1.89-2.67,0-4.74-.32-6.72-1.2Z"></path><path class="cls-2" d="m546.77,16.69h.23c1.56-1.7,8.28-8.56,9.61-10.12,1.29-1.52,2.3-2.67,2.3-3.45,0-.51-.18-.83-.64-.92-.41-.09-.6-.18-.6-.46,0-.32.23-.41.74-.41.97,0,3.5.14,4.74.14,1.43,0,3.96-.14,5.38-.14.46,0,.78.09.78.41s-.23.41-.69.41c-.64,0-1.79.18-2.67.51-1.43.55-2.99,1.52-4.97,3.45-1.43,1.38-8.37,8.28-9.94,9.94,1.66,2.16,10.67,11.87,12.47,13.57,2.02,1.93,4.09,4,6.58,4.97,1.38.55,2.3.69,2.85.69.32,0,.6.09.6.37,0,.32-.23.46-1.1.46h-4c-1.38,0-2.21,0-3.17-.09-2.48-.23-3.73-1.24-5.7-2.99-2.02-1.79-11.09-12.42-12.05-13.75l-.51-.69h-.23v4.19c0,4.23,0,7.87.14,9.84.09,1.29.51,2.3,1.66,2.48.64.09,1.66.18,2.25.18.37,0,.6.14.6.37,0,.32-.37.46-.87.46-2.58,0-5.47-.14-6.62-.14-1.06,0-3.96.14-5.8.14-.6,0-.92-.14-.92-.46,0-.23.18-.37.74-.37.69,0,1.24-.09,1.66-.18.92-.18,1.15-1.2,1.33-2.53.23-1.93.23-5.57.23-9.8v-8.1c0-6.99,0-8.28-.09-9.75-.09-1.56-.46-2.3-1.98-2.62-.37-.09-1.15-.14-1.79-.14-.51,0-.78-.09-.78-.41s.32-.41,1.01-.41c2.44,0,5.34.14,6.44.14s4-.14,5.57-.14c.64,0,.97.09.97.41s-.28.41-.64.41c-.46,0-.74.05-1.29.14-1.24.23-1.61,1.01-1.7,2.62-.09,1.47-.09,2.76-.09,9.75v2.02Z"></path><path class="cls-2" d="m587.08,24.1c-.23,0-.32.09-.41.37l-2.48,6.58c-.46,1.15-.69,2.25-.69,2.81,0,.83.41,1.43,1.84,1.43h.69c.55,0,.69.09.69.37,0,.37-.28.46-.78.46-1.47,0-3.45-.14-4.88-.14-.51,0-3.04.14-5.43.14-.6,0-.87-.09-.87-.46,0-.28.18-.37.55-.37.41,0,1.06-.05,1.43-.09,2.12-.28,2.99-1.84,3.91-4.14l11.55-28.89c.55-1.33.83-1.84,1.29-1.84.41,0,.69.41,1.15,1.47,1.1,2.53,8.46,21.3,11.41,28.29,1.75,4.14,3.08,4.78,4.05,5.01.69.14,1.38.18,1.93.18.37,0,.6.05.6.37,0,.37-.41.46-2.12.46s-5.01,0-8.69-.09c-.83-.05-1.38-.05-1.38-.37,0-.28.18-.37.64-.41.32-.09.64-.51.41-1.06l-3.68-9.75c-.09-.23-.23-.32-.46-.32h-10.26Zm9.38-2.3c.23,0,.28-.14.23-.28l-4.14-11.36c-.05-.18-.09-.41-.23-.41s-.23.23-.28.41l-4.23,11.32c-.05.18,0,.32.18.32h8.46Z"></path><path class="cls-2" d="m387.47,84.85c.09,3.59.69,4.78,1.61,5.11.78.28,1.66.32,2.39.32.51,0,.78.09.78.37,0,.37-.41.46-1.06.46-2.99,0-4.83-.14-5.7-.14-.41,0-2.58.14-4.97.14-.6,0-1.01-.05-1.01-.46,0-.28.28-.37.74-.37.6,0,1.43-.05,2.07-.23,1.2-.37,1.38-1.7,1.43-5.7l.41-27.23c0-.92.14-1.56.6-1.56.51,0,.92.6,1.7,1.43.55.6,7.54,8.1,14.26,14.77,3.13,3.13,9.34,9.75,10.12,10.49h.23l-.46-20.65c-.05-2.81-.46-3.68-1.56-4.14-.69-.28-1.79-.28-2.44-.28-.55,0-.74-.14-.74-.41,0-.37.51-.41,1.2-.41,2.39,0,4.6.14,5.57.14.51,0,2.25-.14,4.51-.14.6,0,1.06.05,1.06.41,0,.28-.28.41-.83.41-.46,0-.83,0-1.38.14-1.29.37-1.66,1.33-1.7,3.91l-.51,29.03c0,1.01-.18,1.43-.6,1.43-.51,0-1.06-.51-1.56-1.01-2.9-2.76-8.79-8.79-13.57-13.52-5.01-4.97-10.12-10.72-10.95-11.59h-.14l.51,19.32Z"></path><path class="cls-2" d="m439.5,79.1c-.23,0-.32.09-.41.37l-2.48,6.58c-.46,1.15-.69,2.25-.69,2.81,0,.83.41,1.43,1.84,1.43h.69c.55,0,.69.09.69.37,0,.37-.28.46-.78.46-1.47,0-3.45-.14-4.88-.14-.51,0-3.04.14-5.43.14-.6,0-.87-.09-.87-.46,0-.28.18-.37.55-.37.41,0,1.06-.05,1.43-.09,2.12-.28,2.99-1.84,3.91-4.14l11.55-28.89c.55-1.33.83-1.84,1.29-1.84.41,0,.69.41,1.15,1.47,1.1,2.53,8.46,21.3,11.41,28.29,1.75,4.14,3.08,4.78,4.05,5.01.69.14,1.38.18,1.93.18.37,0,.6.05.6.37,0,.37-.41.46-2.12.46s-5.01,0-8.69-.09c-.83-.05-1.38-.05-1.38-.37,0-.28.18-.37.64-.41.32-.09.64-.51.41-1.06l-3.68-9.75c-.09-.23-.23-.32-.46-.32h-10.26Zm9.38-2.3c.23,0,.28-.14.23-.28l-4.14-11.36c-.05-.18-.09-.41-.23-.41s-.23.23-.28.41l-4.23,11.32c-.05.18,0,.32.18.32h8.46Z"></path><path class="cls-2" d="m482.19,58.91l-6.85.18c-2.67.09-3.77.32-4.46,1.33-.46.69-.69,1.24-.78,1.61-.09.37-.23.55-.51.55-.32,0-.41-.23-.41-.74,0-.74.87-4.92.97-5.29.14-.6.28-.87.55-.87.37,0,.83.46,1.98.55,1.33.14,3.08.23,4.6.23h18.22c1.47,0,2.48-.14,3.17-.23.69-.14,1.06-.23,1.24-.23.32,0,.37.28.37.97,0,.97-.14,4.14-.14,5.34-.05.46-.14.74-.41.74-.37,0-.46-.23-.51-.92l-.05-.51c-.09-1.2-1.33-2.48-5.43-2.58l-5.8-.14v18.86c0,4.23,0,7.87.23,9.84.14,1.29.41,2.3,1.79,2.48.64.09,1.66.18,2.35.18.51,0,.74.14.74.37,0,.32-.37.46-.87.46-3.04,0-5.93-.14-7.22-.14-1.06,0-3.96.14-5.8.14-.6,0-.92-.14-.92-.46,0-.23.18-.37.74-.37.69,0,1.24-.09,1.66-.18.92-.18,1.2-1.2,1.33-2.53.23-1.93.23-5.57.23-9.8v-18.86Z"></path><path class="cls-2" d="m517.93,69.67c0-6.99,0-8.28-.09-9.75-.09-1.56-.55-2.35-1.56-2.58-.51-.14-1.1-.18-1.66-.18-.46,0-.74-.09-.74-.46,0-.28.37-.37,1.1-.37,1.75,0,4.65.14,5.98.14,1.15,0,3.86-.14,5.61-.14.6,0,.97.09.97.37,0,.37-.28.46-.74.46s-.83.05-1.38.14c-1.24.23-1.61,1.01-1.7,2.62-.09,1.47-.09,2.76-.09,9.75v8.1c0,4.46,0,8.1.18,10.07.14,1.24.46,2.07,1.84,2.25.64.09,1.66.18,2.35.18.51,0,.74.14.74.37,0,.32-.37.46-.87.46-3.04,0-5.93-.14-7.18-.14-1.06,0-3.96.14-5.8.14-.6,0-.92-.14-.92-.46,0-.23.18-.37.74-.37.69,0,1.24-.09,1.66-.18.92-.18,1.2-.97,1.33-2.3.23-1.93.23-5.57.23-10.03v-8.1Z"></path><path class="cls-2" d="m543.69,60.84c-1.06-2.53-1.84-3.04-3.5-3.5-.69-.18-1.43-.18-1.79-.18-.41,0-.55-.14-.55-.41,0-.37.51-.41,1.2-.41,2.44,0,5.06.14,6.67.14,1.15,0,3.36-.14,5.66-.14.55,0,1.06.09,1.06.41s-.28.41-.69.41c-.74,0-1.43.05-1.79.32-.32.23-.46.55-.46.97,0,.6.41,1.89,1.06,3.54l7.91,20.88h.18c1.98-5.06,7.96-19.87,9.06-22.91.23-.6.41-1.29.41-1.7,0-.37-.18-.74-.6-.87-.55-.18-1.24-.23-1.84-.23-.41,0-.78-.05-.78-.37,0-.37.41-.46,1.29-.46,2.3,0,4.23.14,4.83.14.78,0,2.94-.14,4.32-.14.6,0,.97.09.97.41s-.28.41-.74.41-1.43,0-2.25.55c-.6.41-1.29,1.2-2.53,4.14-1.79,4.32-3.04,6.81-5.52,12.47-2.94,6.72-5.11,11.73-6.12,14.03-1.2,2.67-1.47,3.4-2.12,3.4-.6,0-.87-.64-1.75-2.81l-11.59-28.11Z"></path><path class="cls-2" d="m590.43,69.67c0-6.99,0-8.28-.09-9.75-.09-1.56-.46-2.3-1.98-2.62-.37-.09-1.15-.14-1.79-.14-.51,0-.78-.09-.78-.41s.32-.41,1.01-.41c1.24,0,2.58.05,3.73.05,1.2.05,2.25.09,2.9.09,1.47,0,10.63,0,11.5-.05.87-.09,1.61-.18,1.98-.28.23-.05.51-.18.74-.18s.28.18.28.41c0,.32-.23.87-.37,2.99-.05.46-.14,2.48-.23,3.04-.05.23-.14.51-.46.51s-.41-.23-.41-.64c0-.32-.05-1.1-.28-1.66-.32-.83-.78-1.38-3.08-1.66-.78-.09-5.61-.18-6.53-.18-.23,0-.32.14-.32.46v11.64c0,.32.05.51.32.51,1.01,0,6.3,0,7.36-.09,1.1-.09,1.79-.23,2.21-.69.32-.37.51-.6.74-.6.18,0,.32.09.32.37s-.23,1.01-.37,3.36c-.09.92-.18,2.76-.18,3.08,0,.37,0,.87-.41.87-.32,0-.41-.18-.41-.41-.05-.46-.05-1.06-.18-1.66-.23-.92-.87-1.61-2.58-1.79-.87-.09-5.43-.14-6.53-.14-.23,0-.28.18-.28.46v3.63c0,1.56-.05,5.8,0,7.13.09,3.17.83,3.86,5.52,3.86,1.2,0,3.13,0,4.32-.55,1.2-.55,1.75-1.52,2.07-3.4.09-.51.18-.69.51-.69.37,0,.37.37.37.83,0,1.06-.37,4.19-.6,5.11-.32,1.2-.74,1.2-2.48,1.2-3.45,0-5.98-.09-7.96-.14-1.98-.09-3.4-.14-4.78-.14-.51,0-1.52.05-2.62.05-1.06.05-2.25.09-3.17.09-.6,0-.92-.14-.92-.46,0-.23.18-.37.74-.37.69,0,1.24-.09,1.66-.18.92-.18,1.15-1.2,1.33-2.53.23-1.93.23-5.57.23-9.8v-8.1Z"></path><path class="cls-2" d="m408.5,125.96c.14,0,.28-.09.28-.32v-.97c0-6.99,0-8.28-.09-9.75-.09-1.56-.46-2.3-1.98-2.62-.37-.09-1.15-.14-1.79-.14-.51,0-.78-.09-.78-.41s.32-.41.97-.41c2.48,0,5.38.14,6.62.14,1.1,0,4-.14,5.8-.14.64,0,.97.09.97.41s-.28.41-.83.41c-.37,0-.78.05-1.33.14-1.24.23-1.61,1.01-1.7,2.62-.09,1.47-.09,2.76-.09,9.75v8.1c0,4.23,0,7.87.23,9.84.14,1.29.41,2.3,1.79,2.48.64.09,1.66.18,2.35.18.51,0,.74.14.74.37,0,.32-.37.46-.92.46-2.99,0-5.89-.14-7.18-.14-1.06,0-3.96.14-5.75.14-.64,0-.97-.14-.97-.46,0-.23.18-.37.74-.37.69,0,1.24-.09,1.66-.18.92-.18,1.15-1.2,1.33-2.53.23-1.93.23-5.57.23-9.8v-4.05c0-.18-.14-.28-.28-.28h-17.57c-.14,0-.28.05-.28.28v4.05c0,4.23,0,7.87.23,9.84.14,1.29.41,2.3,1.79,2.48.64.09,1.66.18,2.35.18.51,0,.74.14.74.37,0,.32-.37.46-.92.46-2.99,0-5.89-.14-7.18-.14-1.06,0-3.96.14-5.8.14-.6,0-.92-.14-.92-.46,0-.23.18-.37.74-.37.69,0,1.24-.09,1.66-.18.92-.18,1.15-1.2,1.33-2.53.23-1.93.23-5.57.23-9.8v-8.1c0-6.99,0-8.28-.09-9.75-.09-1.56-.46-2.3-1.98-2.62-.37-.09-1.15-.14-1.79-.14-.51,0-.78-.09-.78-.41s.32-.41.97-.41c2.48,0,5.38.14,6.62.14,1.1,0,4-.14,5.8-.14.64,0,.97.09.97.41s-.28.41-.83.41c-.37,0-.78.05-1.33.14-1.24.23-1.61,1.01-1.7,2.62-.09,1.47-.09,2.76-.09,9.75v.97c0,.23.14.32.28.32h17.57Z"></path><path class="cls-2" d="m438.81,124.67c0-6.99,0-8.28-.09-9.75-.09-1.56-.46-2.3-1.98-2.62-.37-.09-1.15-.14-1.79-.14-.51,0-.78-.09-.78-.41s.32-.41,1.01-.41c1.24,0,2.58.05,3.73.05,1.2.05,2.25.09,2.9.09,1.47,0,10.63,0,11.5-.05.87-.09,1.61-.18,1.98-.28.23-.05.51-.18.74-.18s.28.18.28.41c0,.32-.23.87-.37,2.99-.05.46-.14,2.48-.23,3.04-.05.23-.14.51-.46.51s-.41-.23-.41-.64c0-.32-.05-1.1-.28-1.66-.32-.83-.78-1.38-3.08-1.66-.78-.09-5.61-.18-6.53-.18-.23,0-.32.14-.32.46v11.64c0,.32.05.51.32.51,1.01,0,6.3,0,7.36-.09,1.1-.09,1.79-.23,2.21-.69.32-.37.51-.6.74-.6.18,0,.32.09.32.37s-.23,1.01-.37,3.36c-.09.92-.18,2.76-.18,3.08,0,.37,0,.87-.41.87-.32,0-.41-.18-.41-.41-.05-.46-.05-1.06-.18-1.66-.23-.92-.87-1.61-2.58-1.79-.87-.09-5.43-.14-6.53-.14-.23,0-.28.18-.28.46v3.63c0,1.56-.05,5.8,0,7.13.09,3.17.83,3.86,5.52,3.86,1.2,0,3.13,0,4.32-.55,1.2-.55,1.75-1.52,2.07-3.4.09-.51.18-.69.51-.69.37,0,.37.37.37.83,0,1.06-.37,4.19-.6,5.11-.32,1.2-.74,1.2-2.48,1.2-3.45,0-5.98-.09-7.96-.14-1.98-.09-3.4-.14-4.78-.14-.51,0-1.52.05-2.62.05-1.06.05-2.25.09-3.17.09-.6,0-.92-.14-.92-.46,0-.23.18-.37.74-.37.69,0,1.24-.09,1.66-.18.92-.18,1.15-1.2,1.33-2.53.23-1.93.23-5.57.23-9.8v-8.1Z"></path><path class="cls-2" d="m477.08,124.67c0-6.99,0-8.28-.09-9.75-.09-1.56-.46-2.3-1.98-2.62-.37-.09-1.15-.14-1.79-.14-.51,0-.78-.09-.78-.41s.32-.41,1.01-.41c2.44,0,5.34.14,6.3.14,1.56,0,5.06-.14,6.49-.14,2.9,0,5.98.28,8.46,1.98,1.29.87,3.13,3.22,3.13,6.3,0,3.4-1.43,6.53-6.07,10.3,4.09,5.15,7.27,9.25,9.98,12.1,2.58,2.67,4.46,2.99,5.15,3.13.51.09.92.14,1.29.14s.55.14.55.37c0,.37-.32.46-.87.46h-4.37c-2.58,0-3.73-.23-4.92-.87-1.98-1.06-3.73-3.22-6.3-6.76-1.84-2.53-3.96-5.66-4.55-6.35-.23-.28-.51-.32-.83-.32l-4-.09c-.23,0-.37.09-.37.37v.64c0,4.28,0,7.91.23,9.84.14,1.33.41,2.35,1.79,2.53.69.09,1.7.18,2.25.18.37,0,.55.14.55.37,0,.32-.32.46-.92.46-2.67,0-6.07-.14-6.76-.14-.87,0-3.77.14-5.61.14-.6,0-.92-.14-.92-.46,0-.23.18-.37.74-.37.69,0,1.24-.09,1.66-.18.92-.18,1.15-1.2,1.33-2.53.23-1.93.23-5.57.23-9.8v-8.1Zm5.43,3.63c0,.51.09.69.41.83.97.32,2.35.46,3.5.46,1.84,0,2.44-.18,3.27-.78,1.38-1.01,2.71-3.13,2.71-6.9,0-6.53-4.32-8.42-7.04-8.42-1.15,0-1.98.05-2.44.18-.32.09-.41.28-.41.64v13.98Z"></path><path class="cls-2" d="m521.01,124.67c0-6.99,0-8.28-.09-9.75-.09-1.56-.55-2.35-1.56-2.58-.51-.14-1.1-.18-1.66-.18-.46,0-.74-.09-.74-.46,0-.28.37-.37,1.1-.37,1.75,0,4.65.14,5.98.14,1.15,0,3.86-.14,5.61-.14.6,0,.97.09.97.37,0,.37-.28.46-.74.46s-.83.05-1.38.14c-1.24.23-1.61,1.01-1.7,2.62-.09,1.47-.09,2.76-.09,9.75v8.1c0,4.46,0,8.1.18,10.07.14,1.24.46,2.07,1.84,2.25.64.09,1.66.18,2.35.18.51,0,.74.14.74.37,0,.32-.37.46-.87.46-3.04,0-5.93-.14-7.18-.14-1.06,0-3.96.14-5.8.14-.6,0-.92-.14-.92-.46,0-.23.18-.37.74-.37.69,0,1.24-.09,1.66-.18.92-.18,1.2-.97,1.33-2.3.23-1.93.23-5.57.23-10.03v-8.1Z"></path><path class="cls-2" d="m557.12,113.91l-6.85.18c-2.67.09-3.77.32-4.46,1.33-.46.69-.69,1.24-.78,1.61-.09.37-.23.55-.51.55-.32,0-.41-.23-.41-.74,0-.74.87-4.92.97-5.29.14-.6.28-.87.55-.87.37,0,.83.46,1.98.55,1.33.14,3.08.23,4.6.23h18.22c1.47,0,2.48-.14,3.17-.23.69-.14,1.06-.23,1.24-.23.32,0,.37.28.37.97,0,.97-.14,4.14-.14,5.34-.05.46-.14.74-.41.74-.37,0-.46-.23-.51-.92l-.05-.51c-.09-1.2-1.33-2.48-5.43-2.58l-5.8-.14v18.86c0,4.23,0,7.87.23,9.84.14,1.29.41,2.3,1.79,2.48.64.09,1.66.18,2.35.18.51,0,.74.14.74.37,0,.32-.37.46-.87.46-3.04,0-5.93-.14-7.22-.14-1.06,0-3.96.14-5.8.14-.6,0-.92-.14-.92-.46,0-.23.18-.37.74-.37.69,0,1.24-.09,1.66-.18.92-.18,1.2-1.2,1.33-2.53.23-1.93.23-5.57.23-9.8v-18.86Z"></path><path class="cls-2" d="m591.95,134.1c-.23,0-.32.09-.41.37l-2.48,6.58c-.46,1.15-.69,2.25-.69,2.81,0,.83.41,1.43,1.84,1.43h.69c.55,0,.69.09.69.37,0,.37-.28.46-.78.46-1.47,0-3.45-.14-4.88-.14-.51,0-3.04.14-5.43.14-.6,0-.87-.09-.87-.46,0-.28.18-.37.55-.37.41,0,1.06-.05,1.43-.09,2.12-.28,2.99-1.84,3.91-4.14l11.55-28.89c.55-1.33.83-1.84,1.29-1.84.41,0,.69.41,1.15,1.47,1.1,2.53,8.46,21.3,11.41,28.29,1.75,4.14,3.08,4.78,4.05,5.01.69.14,1.38.18,1.93.18.37,0,.6.05.6.37,0,.37-.41.46-2.12.46s-5.01,0-8.69-.09c-.83-.05-1.38-.05-1.38-.37,0-.28.18-.37.64-.41.32-.09.64-.51.41-1.06l-3.68-9.75c-.09-.23-.23-.32-.46-.32h-10.26Zm9.38-2.3c.23,0,.28-.14.23-.28l-4.14-11.36c-.05-.18-.09-.41-.23-.41s-.23.23-.28.41l-4.23,11.32c-.05.18,0,.32.18.32h8.46Z"></path><path class="cls-2" d="m659.43,143.02c0,1.24-.05,1.33-.6,1.66-2.99,1.56-7.5,2.07-11.09,2.07-11.27,0-21.25-5.34-21.25-18.03,0-7.36,3.82-12.51,8-15.04,4.42-2.67,8.51-2.99,12.37-2.99,3.17,0,7.22.55,8.14.74.97.18,2.58.46,3.63.51.55.05.64.23.64.55,0,.51-.32,1.79-.32,7.54,0,.74-.14.97-.51.97-.32,0-.41-.23-.46-.6-.14-1.06-.37-2.53-1.56-3.82-1.38-1.47-5.06-3.59-10.26-3.59-2.53,0-5.89.18-9.11,2.85-2.58,2.16-4.23,5.61-4.23,11.27,0,9.89,6.3,17.3,16.01,17.3,1.2,0,2.81,0,3.91-.51.69-.32.87-.92.87-1.7v-4.32c0-2.3,0-4.05-.05-5.43-.05-1.56-.46-2.3-1.98-2.62-.37-.09-1.15-.14-1.79-.14-.41,0-.69-.09-.69-.37,0-.37.32-.46.97-.46,2.39,0,5.29.14,6.67.14s3.86-.14,5.38-.14c.6,0,.92.09.92.46,0,.28-.28.37-.6.37-.37,0-.69.05-1.24.14-1.24.23-1.7,1.01-1.75,2.62-.05,1.38-.05,3.22-.05,5.52v5.06Z"></path><path class="cls-2" d="m681.46,124.67c0-6.99,0-8.28-.09-9.75-.09-1.56-.46-2.3-1.98-2.62-.37-.09-1.15-.14-1.79-.14-.51,0-.78-.09-.78-.41s.32-.41,1.01-.41c1.24,0,2.58.05,3.73.05,1.2.05,2.25.09,2.9.09,1.47,0,10.63,0,11.5-.05.87-.09,1.61-.18,1.98-.28.23-.05.51-.18.74-.18s.28.18.28.41c0,.32-.23.87-.37,2.99-.05.46-.14,2.48-.23,3.04-.05.23-.14.51-.46.51s-.41-.23-.41-.64c0-.32-.05-1.1-.28-1.66-.32-.83-.78-1.38-3.08-1.66-.78-.09-5.61-.18-6.53-.18-.23,0-.32.14-.32.46v11.64c0,.32.05.51.32.51,1.01,0,6.3,0,7.36-.09,1.1-.09,1.79-.23,2.21-.69.32-.37.51-.6.74-.6.18,0,.32.09.32.37s-.23,1.01-.37,3.36c-.09.92-.18,2.76-.18,3.08,0,.37,0,.87-.41.87-.32,0-.41-.18-.41-.41-.05-.46-.05-1.06-.18-1.66-.23-.92-.87-1.61-2.58-1.79-.87-.09-5.43-.14-6.53-.14-.23,0-.28.18-.28.46v3.63c0,1.56-.05,5.8,0,7.13.09,3.17.83,3.86,5.52,3.86,1.2,0,3.13,0,4.32-.55,1.2-.55,1.75-1.52,2.07-3.4.09-.51.18-.69.51-.69.37,0,.37.37.37.83,0,1.06-.37,4.19-.6,5.11-.32,1.2-.74,1.2-2.48,1.2-3.45,0-5.98-.09-7.96-.14-1.98-.09-3.4-.14-4.78-.14-.51,0-1.52.05-2.62.05-1.06.05-2.25.09-3.17.09-.6,0-.92-.14-.92-.46,0-.23.18-.37.74-.37.69,0,1.24-.09,1.66-.18.92-.18,1.15-1.2,1.33-2.53.23-1.93.23-5.57.23-9.8v-8.1Z"></path><path class="cls-2" d="m385.59,196.74c-4.51-3.96-5.7-9.11-5.7-13.57,0-3.13.97-8.56,5.38-12.6,3.31-3.04,7.68-4.88,14.54-4.88,2.85,0,4.55.18,6.67.46,1.75.23,3.22.64,4.6.78.51.05.69.28.69.55,0,.37-.14.92-.23,2.53-.09,1.52-.05,4.05-.14,4.97-.05.69-.14,1.06-.55,1.06-.37,0-.46-.37-.46-1.01-.05-1.43-.64-3.04-1.79-4.23-1.52-1.61-5.11-2.85-9.34-2.85-4,0-6.62,1.01-8.65,2.85-3.36,3.08-4.23,7.45-4.23,11.91,0,10.95,8.33,16.38,14.49,16.38,4.09,0,6.58-.46,8.42-2.58.78-.87,1.38-2.21,1.56-3.04.14-.74.23-.92.6-.92.32,0,.41.32.41.69,0,.55-.55,4.55-1.01,6.12-.23.78-.41,1.01-1.2,1.33-1.84.74-5.34,1.06-8.28,1.06-6.3,0-11.59-1.38-15.78-5.01Z"></path><path class="cls-2" d="m430.9,179.67c0-6.99,0-8.28-.09-9.75-.09-1.56-.46-2.3-1.98-2.62-.37-.09-1.15-.14-1.79-.14-.51,0-.78-.09-.78-.41s.32-.41,1.01-.41c1.24,0,2.58.05,3.73.05,1.2.05,2.25.09,2.9.09,1.47,0,10.63,0,11.5-.05.87-.09,1.61-.18,1.98-.28.23-.05.51-.18.74-.18s.28.18.28.41c0,.32-.23.87-.37,2.99-.05.46-.14,2.48-.23,3.04-.05.23-.14.51-.46.51s-.41-.23-.41-.64c0-.32-.05-1.1-.28-1.66-.32-.83-.78-1.38-3.08-1.66-.78-.09-5.61-.18-6.53-.18-.23,0-.32.14-.32.46v11.64c0,.32.05.51.32.51,1.01,0,6.3,0,7.36-.09,1.1-.09,1.79-.23,2.21-.69.32-.37.51-.6.74-.6.18,0,.32.09.32.37s-.23,1.01-.37,3.36c-.09.92-.18,2.76-.18,3.08,0,.37,0,.87-.41.87-.32,0-.41-.18-.41-.41-.05-.46-.05-1.06-.18-1.66-.23-.92-.87-1.61-2.58-1.79-.87-.09-5.43-.14-6.53-.14-.23,0-.28.18-.28.46v3.63c0,1.56-.05,5.8,0,7.13.09,3.17.83,3.86,5.52,3.86,1.2,0,3.13,0,4.32-.55,1.2-.55,1.75-1.52,2.07-3.4.09-.51.18-.69.51-.69.37,0,.37.37.37.83,0,1.06-.37,4.19-.6,5.11-.32,1.2-.74,1.2-2.48,1.2-3.45,0-5.98-.09-7.96-.14-1.98-.09-3.4-.14-4.78-.14-.51,0-1.52.05-2.62.05-1.06.05-2.25.09-3.17.09-.6,0-.92-.14-.92-.46,0-.23.18-.37.74-.37.69,0,1.24-.09,1.66-.18.92-.18,1.15-1.2,1.33-2.53.23-1.93.23-5.57.23-9.8v-8.1Z"></path><path class="cls-2" d="m471.74,194.85c.09,3.59.69,4.78,1.61,5.11.78.28,1.66.32,2.39.32.51,0,.78.09.78.37,0,.37-.41.46-1.06.46-2.99,0-4.83-.14-5.7-.14-.41,0-2.58.14-4.97.14-.6,0-1.01-.05-1.01-.46,0-.28.28-.37.74-.37.6,0,1.43-.05,2.07-.23,1.2-.37,1.38-1.7,1.43-5.7l.41-27.23c0-.92.14-1.56.6-1.56.51,0,.92.6,1.7,1.43.55.6,7.54,8.1,14.26,14.77,3.13,3.13,9.34,9.75,10.12,10.49h.23l-.46-20.65c-.05-2.81-.46-3.68-1.56-4.14-.69-.28-1.79-.28-2.44-.28-.55,0-.74-.14-.74-.41,0-.37.51-.41,1.2-.41,2.39,0,4.6.14,5.57.14.51,0,2.25-.14,4.51-.14.6,0,1.06.05,1.06.41,0,.28-.28.41-.83.41-.46,0-.83,0-1.38.14-1.29.37-1.66,1.33-1.7,3.91l-.51,29.03c0,1.01-.18,1.43-.6,1.43-.51,0-1.06-.51-1.56-1.01-2.9-2.76-8.79-8.79-13.57-13.52-5.01-4.97-10.12-10.72-10.95-11.59h-.14l.51,19.32Z"></path><path class="cls-2" d="m528.05,168.91l-6.85.18c-2.67.09-3.77.32-4.46,1.33-.46.69-.69,1.24-.78,1.61-.09.37-.23.55-.51.55-.32,0-.41-.23-.41-.74,0-.74.87-4.92.97-5.29.14-.6.28-.87.55-.87.37,0,.83.46,1.98.55,1.33.14,3.08.23,4.6.23h18.22c1.47,0,2.48-.14,3.17-.23.69-.14,1.06-.23,1.24-.23.32,0,.37.28.37.97,0,.97-.14,4.14-.14,5.34-.05.46-.14.74-.41.74-.37,0-.46-.23-.51-.92l-.05-.51c-.09-1.2-1.33-2.48-5.43-2.58l-5.8-.14v18.86c0,4.23,0,7.87.23,9.84.14,1.29.41,2.3,1.79,2.48.64.09,1.66.18,2.35.18.51,0,.74.14.74.37,0,.32-.37.46-.87.46-3.04,0-5.93-.14-7.22-.14-1.06,0-3.96.14-5.8.14-.6,0-.92-.14-.92-.46,0-.23.18-.37.74-.37.69,0,1.24-.09,1.66-.18.92-.18,1.2-1.2,1.33-2.53.23-1.93.23-5.57.23-9.8v-18.86Z"></path><path class="cls-2" d="m563.79,179.67c0-6.99,0-8.28-.09-9.75-.09-1.56-.46-2.3-1.98-2.62-.37-.09-1.15-.14-1.79-.14-.51,0-.78-.09-.78-.41s.32-.41,1.01-.41c1.24,0,2.58.05,3.73.05,1.2.05,2.25.09,2.9.09,1.47,0,10.63,0,11.5-.05.87-.09,1.61-.18,1.98-.28.23-.05.51-.18.74-.18s.28.18.28.41c0,.32-.23.87-.37,2.99-.05.46-.14,2.48-.23,3.04-.05.23-.14.51-.46.51s-.41-.23-.41-.64c0-.32-.05-1.1-.28-1.66-.32-.83-.78-1.38-3.08-1.66-.78-.09-5.61-.18-6.53-.18-.23,0-.32.14-.32.46v11.64c0,.32.05.51.32.51,1.01,0,6.3,0,7.36-.09,1.1-.09,1.79-.23,2.21-.69.32-.37.51-.6.74-.6.18,0,.32.09.32.37s-.23,1.01-.37,3.36c-.09.92-.18,2.76-.18,3.08,0,.37,0,.87-.41.87-.32,0-.41-.18-.41-.41-.05-.46-.05-1.06-.18-1.66-.23-.92-.87-1.61-2.58-1.79-.87-.09-5.43-.14-6.53-.14-.23,0-.28.18-.28.46v3.63c0,1.56-.05,5.8,0,7.13.09,3.17.83,3.86,5.52,3.86,1.2,0,3.13,0,4.32-.55,1.2-.55,1.75-1.52,2.07-3.4.09-.51.18-.69.51-.69.37,0,.37.37.37.83,0,1.06-.37,4.19-.6,5.11-.32,1.2-.74,1.2-2.48,1.2-3.45,0-5.98-.09-7.96-.14-1.98-.09-3.4-.14-4.78-.14-.51,0-1.52.05-2.62.05-1.06.05-2.25.09-3.17.09-.6,0-.92-.14-.92-.46,0-.23.18-.37.74-.37.69,0,1.24-.09,1.66-.18.92-.18,1.15-1.2,1.33-2.53.23-1.93.23-5.57.23-9.8v-8.1Z"></path><path class="cls-2" d="m602.06,179.67c0-6.99,0-8.28-.09-9.75-.09-1.56-.46-2.3-1.98-2.62-.37-.09-1.15-.14-1.79-.14-.51,0-.78-.09-.78-.41s.32-.41,1.01-.41c2.44,0,5.34.14,6.3.14,1.56,0,5.06-.14,6.49-.14,2.9,0,5.98.28,8.46,1.98,1.29.87,3.13,3.22,3.13,6.3,0,3.4-1.43,6.53-6.07,10.3,4.09,5.15,7.27,9.25,9.98,12.1,2.58,2.67,4.46,2.99,5.15,3.13.51.09.92.14,1.29.14s.55.14.55.37c0,.37-.32.46-.87.46h-4.37c-2.58,0-3.73-.23-4.92-.87-1.98-1.06-3.73-3.22-6.3-6.76-1.84-2.53-3.96-5.66-4.55-6.35-.23-.28-.51-.32-.83-.32l-4-.09c-.23,0-.37.09-.37.37v.64c0,4.28,0,7.91.23,9.84.14,1.33.41,2.35,1.79,2.53.69.09,1.7.18,2.25.18.37,0,.55.14.55.37,0,.32-.32.46-.92.46-2.67,0-6.07-.14-6.76-.14-.87,0-3.77.14-5.61.14-.6,0-.92-.14-.92-.46,0-.23.18-.37.74-.37.69,0,1.24-.09,1.66-.18.92-.18,1.15-1.2,1.33-2.53.23-1.93.23-5.57.23-9.8v-8.1Zm5.43,3.63c0,.51.09.69.41.83.97.32,2.35.46,3.5.46,1.84,0,2.44-.18,3.27-.78,1.38-1.01,2.71-3.13,2.71-6.9,0-6.53-4.32-8.42-7.04-8.42-1.15,0-1.98.05-2.44.18-.32.09-.41.28-.41.64v13.98Z"></path></g></svg>