<svg xmlns="http://www.w3.org/2000/svg" id="Layer_2" viewBox="0 0 278.91 137.48"><defs><style>.cls-1{fill:#fcb31c;}.cls-2{fill:#e82c2e;}.cls-3{fill:#00a4c4;}.cls-4{fill:#401e17;}</style></defs><g id="CMYK_Coated"><g><path class="cls-1" d="m36.96,54.59C14.98,54.59,0,39.44,0,19.25,0,11.98.9,7.59,4.31,1.22h18.65c-3.4,4.12-6,8.61-6,17.13,0,11.66,8.52,18.12,20.18,18.12,11.03,0,18.39-8.17,18.39-19.03,0-6.63-2.61-11.57-5.65-16.14h18.03c2.51,5.65,4.58,10.13,4.58,17.32,0,19.82-14.35,35.97-35.52,35.97Z"></path><path class="cls-2" d="m45.3,106.93h-17.94v-46.38h17.94v46.38Z"></path><path class="cls-4" d="m96.99,47.46v-29.83h-14.18V1.31h47.01v16.32h-14.18v29.83h-18.66Z"></path><path class="cls-3" d="m27.11,18.23c0-5.27,4.27-9.55,9.55-9.55s9.55,4.28,9.55,9.55-4.28,9.55-9.55,9.55-9.55-4.27-9.55-9.55Z"></path><path class="cls-3" d="m106.46,53.71c21.98,0,36.96,15.16,36.96,35.35,0,7.27-.9,11.56-4.31,17.93h-18.65c3.41-4.12,6.01-8.51,6.01-17.04,0-11.67-8.53-18.12-20.19-18.12-11.04,0-18.38,8.16-18.38,19.02,0,6.64,2.6,11.58,5.65,16.14h-18.03c-2.51-5.65-4.57-10.13-4.57-17.31,0-19.82,14.35-35.97,35.52-35.97Z"></path><g><path class="cls-4" d="m169.45,16.45c-4.59,0-7.97-3.61-7.97-8.2s3.36-8.25,8.04-8.25c2.88,0,4.61,1.02,6.2,2.52l-1.23,1.32c-1.34-1.27-2.84-2.18-5-2.18-3.52,0-6.16,2.84-6.16,6.54s2.66,6.59,6.16,6.59c2.18,0,3.61-.84,5.13-2.3l1.18,1.16c-1.66,1.68-3.48,2.79-6.36,2.79Z"></path><path class="cls-4" d="m187.14,16.45c-4.84,0-8.09-3.79-8.09-8.2s3.29-8.25,8.13-8.25,8.09,3.79,8.09,8.2-3.29,8.25-8.13,8.25Zm0-14.79c-3.64,0-6.23,2.91-6.23,6.54s2.64,6.59,6.27,6.59,6.23-2.91,6.23-6.54-2.63-6.59-6.27-6.59Z"></path><path class="cls-4" d="m206.72,16.45c-4.84,0-8.09-3.79-8.09-8.2s3.29-8.25,8.13-8.25,8.09,3.79,8.09,8.2-3.29,8.25-8.13,8.25Zm0-14.79c-3.63,0-6.22,2.91-6.22,6.54s2.63,6.59,6.27,6.59,6.23-2.91,6.23-6.54-2.64-6.59-6.27-6.59Z"></path><path class="cls-4" d="m233.45,16.18h-2.25l-6.11-7.7-3.38,3.43v4.27h-1.8V.27h1.8v9.5L230.84.27h2.32l-6.81,6.95,7.11,8.95Z"></path><path class="cls-4" d="m164.14,29.8v15.9h-1.79v-15.9h1.79Z"></path><path class="cls-4" d="m182.26,29.8h1.75v15.9h-1.43l-10.27-13.04v13.04h-1.75v-15.9h1.68l10.02,12.75v-12.75Z"></path><path class="cls-4" d="m190.28,29.8h1.8v14.25h8.95v1.66h-10.75v-15.9Z"></path><path class="cls-4" d="m217.6,31.43h-9.7v5.43h8.68v1.64h-8.68v5.57h9.81v1.64h-11.61v-15.9h11.5v1.64Z"></path><path class="cls-4" d="m229.62,45.7h-1.82v-14.24h-5.34v-1.66h12.5v1.66h-5.34v14.24Z"></path><path class="cls-4" d="m169.04,62.55v12.68h-3.5v-12.68h-4.84v-3.23h13.18v3.23h-4.84Z"></path><path class="cls-4" d="m188.15,75.23l-3.41-5.09h-2.75v5.09h-3.5v-15.9h7.27c3.75,0,6,1.98,6,5.25v.04c0,2.57-1.39,4.18-3.41,4.93l3.89,5.68h-4.09Zm.07-10.47c0-1.5-1.05-2.27-2.75-2.27h-3.48v4.57h3.54c1.7,0,2.68-.91,2.68-2.25v-.05Z"></path><path class="cls-4" d="m196.85,75.23v-15.9h3.5v15.9h-3.5Z"></path><path class="cls-4" d="m214.16,75.23h-7.56v-15.9h7.38c3.25,0,5.25,1.61,5.25,4.11v.05c0,1.79-.95,2.79-2.09,3.43,1.84.7,2.98,1.77,2.98,3.91v.05c0,2.91-2.36,4.36-5.96,4.36Zm1.59-11.2c0-1.04-.82-1.64-2.3-1.64h-3.45v3.36h3.22c1.54,0,2.52-.5,2.52-1.68v-.05Zm.88,6.36c0-1.07-.8-1.73-2.59-1.73h-4.04v3.5h4.16c1.54,0,2.48-.55,2.48-1.73v-.04Z"></path><path class="cls-4" d="m235.59,75.23l-1.45-3.57h-6.72l-1.46,3.57h-3.57l6.82-16.02h3.23l6.82,16.02h-3.66Zm-4.82-11.81l-2.11,5.16h4.23l-2.11-5.16Z"></path><path class="cls-4" d="m243.64,75.23v-15.9h3.5v12.72h7.93v3.18h-11.43Z"></path><path class="cls-4" d="m169.45,105.03c-4.59,0-7.97-3.61-7.97-8.2s3.36-8.25,8.04-8.25c2.88,0,4.61,1.02,6.2,2.52l-1.23,1.32c-1.34-1.27-2.84-2.18-5-2.18-3.52,0-6.16,2.84-6.16,6.54s2.66,6.59,6.16,6.59c2.18,0,3.61-.84,5.13-2.29l1.18,1.16c-1.66,1.68-3.48,2.79-6.36,2.79Z"></path><path class="cls-4" d="m187.15,105.03c-4.84,0-8.09-3.79-8.09-8.2s3.29-8.25,8.13-8.25,8.09,3.79,8.09,8.2-3.29,8.25-8.13,8.25Zm0-14.79c-3.64,0-6.23,2.91-6.23,6.54s2.64,6.59,6.27,6.59,6.23-2.91,6.23-6.54-2.63-6.59-6.27-6.59Z"></path><path class="cls-4" d="m212.83,97.96c0,4.63-2.66,7.04-6.63,7.04s-6.61-2.41-6.61-6.91v-9.25h1.79v9.13c0,3.43,1.82,5.36,4.86,5.36s4.79-1.77,4.79-5.25v-9.25h1.79v9.11Z"></path><path class="cls-4" d="m230.05,88.85h1.75v15.9h-1.43l-10.27-13.04v13.04h-1.75v-15.9h1.68l10.02,12.75v-12.75Z"></path><path class="cls-4" d="m244.33,105.03c-4.59,0-7.97-3.61-7.97-8.2s3.36-8.25,8.04-8.25c2.89,0,4.62,1.02,6.21,2.52l-1.23,1.32c-1.34-1.27-2.84-2.18-5-2.18-3.52,0-6.16,2.84-6.16,6.54s2.66,6.59,6.16,6.59c2.18,0,3.61-.84,5.13-2.29l1.18,1.16c-1.66,1.68-3.48,2.79-6.36,2.79Z"></path><path class="cls-4" d="m257.29,88.85v15.9h-1.79v-15.9h1.79Z"></path><path class="cls-4" d="m263.72,88.85h1.79v14.24h8.95v1.66h-10.75v-15.9Z"></path></g></g><g><path class="cls-4" d="m31.55,131.32h-2.23v3.6h-1.97v-11.21h4.42c2.61,0,4.26,1.47,4.26,3.76,0,2.53-2.02,3.84-4.48,3.84Zm.06-5.81h-2.29v4.03h2.29c1.49,0,2.42-.82,2.42-2.02,0-1.33-.94-2.02-2.42-2.02Z"></path><path class="cls-4" d="m42.03,133.52c.94,0,1.62-.35,2.29-1.01l1.14,1.01c-.8.96-1.9,1.58-3.46,1.58-2.45,0-4.34-1.78-4.34-4.4,0-2.43,1.71-4.42,4.13-4.42,2.69,0,4.05,2.11,4.05,4.56,0,.18-.02.34-.03.53h-6.21c.22,1.38,1.18,2.14,2.43,2.14Zm1.89-3.43c-.13-1.25-.86-2.22-2.14-2.22-1.18,0-2.02.91-2.19,2.22h4.34Z"></path><path class="cls-4" d="m52.19,135.11c-2.58,0-4.48-1.97-4.48-4.38s1.92-4.43,4.51-4.43,4.5,1.97,4.5,4.4-1.92,4.42-4.53,4.42Zm0-7.12c-1.55,0-2.54,1.22-2.54,2.7s1.07,2.74,2.58,2.74,2.56-1.22,2.56-2.7-1.07-2.74-2.59-2.74Z"></path><path class="cls-4" d="m63.87,135.09c-1.39,0-2.27-.7-2.87-1.49v3.87h-1.94v-11.01h1.94v1.41c.62-.88,1.5-1.58,2.87-1.58,2,0,3.94,1.58,3.94,4.4s-1.92,4.4-3.94,4.4Zm-.45-7.12c-1.31,0-2.46,1.07-2.46,2.72s1.15,2.72,2.46,2.72,2.42-1.04,2.42-2.72-1.1-2.72-2.42-2.72Z"></path><path class="cls-4" d="m70.29,134.92v-11.68h1.94v11.68h-1.94Z"></path><path class="cls-4" d="m79.04,133.52c.94,0,1.62-.35,2.29-1.01l1.14,1.01c-.8.96-1.9,1.58-3.46,1.58-2.45,0-4.34-1.78-4.34-4.4,0-2.43,1.71-4.42,4.13-4.42,2.69,0,4.05,2.11,4.05,4.56,0,.18-.02.34-.03.53h-6.21c.22,1.38,1.18,2.14,2.43,2.14Zm1.89-3.43c-.13-1.25-.86-2.22-2.14-2.22-1.18,0-2.02.91-2.19,2.22h4.34Z"></path><path class="cls-4" d="m84.89,134.92v-2.19h2.13v2.19h-2.13Z"></path><path class="cls-4" d="m99.31,131.32h-2.23v3.6h-1.97v-11.21h4.42c2.61,0,4.26,1.47,4.26,3.76,0,2.53-2.02,3.84-4.48,3.84Zm.06-5.81h-2.29v4.03h2.29c1.49,0,2.42-.82,2.42-2.02,0-1.33-.94-2.02-2.42-2.02Z"></path><path class="cls-4" d="m110.97,134.92v-1.04c-.58.69-1.46,1.22-2.74,1.22-1.6,0-3.01-.91-3.01-2.61v-.03c0-1.82,1.46-2.72,3.43-2.72,1.02,0,1.68.14,2.34.35v-.21c0-1.17-.74-1.81-2.08-1.81-.94,0-1.65.21-2.42.53l-.53-1.55c.93-.42,1.84-.71,3.22-.71,2.5,0,3.71,1.31,3.71,3.57v5.01h-1.92Zm.05-3.59c-.5-.19-1.18-.34-1.94-.34-1.22,0-1.94.5-1.94,1.36v.03c0,.8.72,1.25,1.63,1.25,1.28,0,2.24-.72,2.24-1.78v-.53Z"></path><path class="cls-4" d="m117.52,134.92h-1.94v-8.45h1.94v1.9c.53-1.26,1.5-2.13,2.99-2.06v2.05h-.11c-1.7,0-2.88,1.1-2.88,3.35v3.22Z"></path><path class="cls-4" d="m124.91,132.28c0,.75.38,1.06,1.04,1.06.43,0,.82-.1,1.2-.29v1.58c-.48.27-1.02.43-1.74.43-1.42,0-2.43-.62-2.43-2.48v-4.45h-1.07v-1.66h1.07v-2.32h1.94v2.32h2.27v1.66h-2.27v4.15Z"></path><path class="cls-4" d="m131.45,134.92h-1.94v-8.45h1.94v1.31c.54-.8,1.33-1.49,2.64-1.49,1.91,0,3.01,1.28,3.01,3.25v5.38h-1.94v-4.8c0-1.31-.66-2.07-1.81-2.07s-1.9.79-1.9,2.1v4.77Z"></path><path class="cls-4" d="m143.73,133.52c.94,0,1.62-.35,2.29-1.01l1.14,1.01c-.8.96-1.91,1.58-3.46,1.58-2.45,0-4.34-1.78-4.34-4.4,0-2.43,1.71-4.42,4.13-4.42,2.69,0,4.05,2.11,4.05,4.56,0,.18-.02.34-.03.53h-6.21c.22,1.38,1.19,2.14,2.43,2.14Zm1.89-3.43c-.13-1.25-.86-2.22-2.14-2.22-1.18,0-2.02.91-2.19,2.22h4.34Z"></path><path class="cls-4" d="m151.8,134.92h-1.94v-8.45h1.94v1.9c.53-1.26,1.5-2.13,2.99-2.06v2.05h-.11c-1.7,0-2.88,1.1-2.88,3.35v3.22Z"></path><path class="cls-4" d="m159.76,135.08c-1.2,0-2.53-.43-3.59-1.26l.87-1.31c.91.69,1.9,1.04,2.77,1.04s1.31-.35,1.31-.91v-.03c0-.66-.9-.88-1.89-1.19-1.25-.35-2.64-.86-2.64-2.48v-.03c0-1.6,1.33-2.58,3.01-2.58,1.06,0,2.21.37,3.11.96l-.77,1.38c-.82-.5-1.68-.8-2.38-.8-.75,0-1.18.35-1.18.85v.03c0,.61.91.86,1.9,1.18,1.23.38,2.62.94,2.62,2.46v.03c0,1.78-1.38,2.66-3.14,2.66Z"></path><path class="cls-4" d="m167.18,134.92h-1.94v-11.68h1.94v4.55c.54-.8,1.33-1.49,2.64-1.49,1.9,0,3.01,1.28,3.01,3.25v5.38h-1.94v-4.8c0-1.31-.66-2.07-1.81-2.07s-1.9.79-1.9,2.1v4.77Z"></path><path class="cls-4" d="m175.58,125.17v-1.84h2.08v1.84h-2.08Zm.08,9.75v-8.45h1.94v8.45h-1.94Z"></path><path class="cls-4" d="m185.31,135.09c-1.39,0-2.27-.7-2.87-1.49v3.87h-1.94v-11.01h1.94v1.41c.62-.88,1.5-1.58,2.87-1.58,2,0,3.94,1.58,3.94,4.4s-1.92,4.4-3.94,4.4Zm-.45-7.12c-1.31,0-2.46,1.07-2.46,2.72s1.15,2.72,2.46,2.72,2.42-1.04,2.42-2.72-1.1-2.72-2.42-2.72Z"></path><path class="cls-4" d="m191.32,134.92v-2.19h2.13v2.19h-2.13Z"></path><path class="cls-4" d="m205.74,131.32h-2.23v3.6h-1.97v-11.21h4.42c2.61,0,4.26,1.47,4.26,3.76,0,2.53-2.02,3.84-4.48,3.84Zm.06-5.81h-2.29v4.03h2.29c1.49,0,2.42-.82,2.42-2.02,0-1.33-.94-2.02-2.42-2.02Z"></path><path class="cls-4" d="m216.33,135.11c-2.58,0-4.48-1.97-4.48-4.38s1.92-4.43,4.51-4.43,4.5,1.97,4.5,4.4-1.92,4.42-4.53,4.42Zm0-7.12c-1.55,0-2.54,1.22-2.54,2.7s1.07,2.74,2.58,2.74,2.56-1.22,2.56-2.7-1.07-2.74-2.59-2.74Z"></path><path class="cls-4" d="m225.55,132.28c0,.75.38,1.06,1.04,1.06.43,0,.82-.1,1.2-.29v1.58c-.48.27-1.02.43-1.74.43-1.42,0-2.43-.62-2.43-2.48v-4.45h-1.07v-1.66h1.07v-2.32h1.94v2.32h2.27v1.66h-2.27v4.15Z"></path><path class="cls-4" d="m233.82,133.52c.95,0,1.62-.35,2.29-1.01l1.14,1.01c-.8.96-1.9,1.58-3.46,1.58-2.45,0-4.34-1.78-4.34-4.4,0-2.43,1.71-4.42,4.13-4.42,2.69,0,4.05,2.11,4.05,4.56,0,.18-.02.34-.03.53h-6.21c.22,1.38,1.18,2.14,2.43,2.14Zm1.89-3.43c-.13-1.25-.86-2.22-2.14-2.22-1.18,0-2.02.91-2.19,2.22h4.34Z"></path><path class="cls-4" d="m241.9,134.92h-1.94v-8.45h1.94v1.31c.54-.8,1.33-1.49,2.64-1.49,1.9,0,3.01,1.28,3.01,3.25v5.38h-1.94v-4.8c0-1.31-.66-2.07-1.81-2.07s-1.9.79-1.9,2.1v4.77Z"></path><path class="cls-4" d="m252.61,132.28c0,.75.38,1.06,1.04,1.06.43,0,.82-.1,1.2-.29v1.58c-.48.27-1.03.43-1.75.43-1.42,0-2.43-.62-2.43-2.48v-4.45h-1.07v-1.66h1.07v-2.32h1.94v2.32h2.27v1.66h-2.27v4.15Z"></path><path class="cls-4" d="m257.25,125.17v-1.84h2.08v1.84h-2.08Zm.08,9.75v-8.45h1.94v8.45h-1.94Z"></path><path class="cls-4" d="m267.34,134.92v-1.04c-.58.69-1.46,1.22-2.74,1.22-1.6,0-3.01-.91-3.01-2.61v-.03c0-1.82,1.46-2.72,3.42-2.72,1.03,0,1.68.14,2.34.35v-.21c0-1.17-.74-1.81-2.08-1.81-.94,0-1.65.21-2.42.53l-.53-1.55c.93-.42,1.84-.71,3.22-.71,2.5,0,3.71,1.31,3.71,3.57v5.01h-1.92Zm.05-3.59c-.5-.19-1.18-.34-1.94-.34-1.22,0-1.94.5-1.94,1.36v.03c0,.8.72,1.25,1.63,1.25,1.28,0,2.24-.72,2.24-1.78v-.53Z"></path><path class="cls-4" d="m272.06,134.92v-11.68h1.94v11.68h-1.94Z"></path><path class="cls-4" d="m276.78,134.92v-2.19h2.13v2.19h-2.13Z"></path></g></g></svg>