<svg xmlns="http://www.w3.org/2000/svg" id="Layer_2" viewBox="0 0 583.71 284.84"><defs><style>.cls-1{fill:#006c70;}</style></defs><g id="Layer_1-2"><path class="cls-1" d="m367.86,0c5.39.84,7.14,3.92,7.22,6.23-.33,3.9-4.03,6.87-4.13,6.94.1-.06,1.52.15,2.4,0,1.13-.34,2.53-1.7,2.42-1.74.11.04.82,7-1.04,10.74-.18.81,0,5.08-14.79,34.97-.01-.13-5.57,1.55-7.92,1.04,2.64,2.23,5.41,2.35,7.23,1.73.02,0-2.44,13.3-9.65,23.19-7.2,9.77-14.69,4.64-15.83,7.26-5.08,9.53-7.74,18.47-11.33,24.45-.56.93-3.12-.54-2.48-1.7,1.43-2.6,4.09-7.51,5.89-12,3.68-9.2,4.82-12.37,4.82-12.47-6.56-3.25-1.71-19.95,1.72-24.24,0-.08.56,1.47,1.38,2.07.68.69,2.24,1.01,2.41,1.05l-1.73-5.54c-2.58-8.35,10.32-21.8,11.36-34.98.08-.02,5.81,5.04,7.93,2.77.06.08-4.61-2.41-6.54-6.58.32-2.92,9.93-15.48,10.67-15.93,1.12.32,4.31,2.1,4.48,2.07l-3.1-4.15C362.93.75,366.01-.04,367.86,0h0Z"></path><path class="cls-1" d="m454.43,115.26c7.45-1.39,9.91,1.74,9.64,6.59-.14,4-1.97,12.87-13.77,16.96-2.27.66-4.11-.36-7.23-.34l3.11,3.45q-.06,0-17.57,10.39c-6.4,3.52-16.88,7.75-16.86,7.62-2.92-.78-7.58-2.53-8.27-1.73,4,3.2,0-.15,4.14,3.11-6.37,3.16-7.35,3.87-14.13,5.9-10.52,3.16-19.2.02-19.28,0-6.01,3.64-6.84,2.93-16.52,9l-1.38-2.77c2.81-2.17,18.22-9.31,18.24-9.35,2.42-1.34.98-8.98,4.49-13.16,3.58-3.79,12.18-5.89,12.05-5.88.13-.01-.71,3.45.34,5.19.75,1.88,4.03,3.08,4.13,3.11-.1-1.61-2.11-7.71-.69-9.34,8.61-3.68,22.18-9.76,22.38-9.7.38-.06,1.01,4.36,4.12,5.2-.58-2.19-2.7-5.25-1.38-7.27,14.02-5.59,34.32-17.1,34.42-16.97h0Z"></path><path class="cls-1" d="m290.24,21.43c-.14-.08.05-.47.67-.69.45.07,1.08.42,1.03.34l.36,84.5c-1.93,1.19-2.31-.43-2.42-.35l.36-83.79h0Z"></path><path class="cls-1" d="m403.83,83.4l2.06-2.08,1.73,1.75-59.91,54.01c-.1-.08-1.34.77-2.05.35-.93-.23-.26-2.34-.35-2.42l2.4-1.04c.21-.48,42.92-37.66,56.11-50.56h0Z"></path><path class="cls-1" d="m323.98,197.6c.1.07-9.49.22-14.12.51-6.32.67-12.68,3.21-16.86,5.06-.11.16-.11.17,0,0-.14.18.12-3.63,2.06-4.55,4.29-1.15,14.68-5.16,20.31-3.54,4.35.55,8.71,2.58,8.61,2.52h0Z"></path><path class="cls-1" d="m358.08,200.79c14.53,2.11,23.03,2.73,37.49,3.11,22.92.38,36.15-.3,58.86-2.42,0-.02.68-.03,1.04.34.85.52-1.13,2.47-1.04,2.43-27.26,1.61-36.19,2.9-57.49,2.07-13.64-.71-24.67-1.03-39.88-2.42.11-.15-1.03-1.58-.7-2.42.47-.53,2.69-.74,2.72-.69h-1Z"></path><path class="cls-1" d="m307.1,205.64c-.07-1.66,1.28-2.99,3.11-3.11,1.49.12,2.83,1.46,2.75,3.11.08,1.67-1.26,3.03-2.75,3.12-1.83-.09-3.17-1.45-3.11-3.12h0Z"></path><path class="cls-1" d="m266.14,204.94c.09-1.73,1.44-3.07,3.11-3.12,1.65.04,3,1.38,3.09,3.12-.09,1.6-1.44,2.95-3.09,3.11-1.68-.15-3.02-1.51-3.11-3.11h0Z"></path><path class="cls-1" d="m344.97,149.19c-1.79-4.56-6.85-6.98-10.67-6.24-2.9.96-5.72,5.46-4.82,9.01,1.68,4.27,7.21,5.97,11.01,5.18,3.63-1.88,5.18-3.46,4.48-7.96h0Zm-5.16,2.42c-1.1,1.78-3.7.31-3.79-1.03.09-1.41,1.22-2.63,2.41-2.78,1.02.14,2.38,1.09,1.38,3.81h0Z"></path><path class="cls-1" d="m238.61,144c-7.14-.83-8.78,2.01-9.64,6.24.17,3.35.87,5.96,4.48,7.96,5.34.85,10.14-.88,11.02-5.2.82-4.54-2.02-8.36-5.85-9h0Zm-4.48,8.31c-1-2.49.36-3.45,1.38-3.46,1.18.01,2.32,1.25,2.4,2.77-.08,1.22-2.66,2.69-3.78.69h0Z"></path><path class="cls-1" d="m255.14,110.29c-1.47-2.64-6.16-11.58-9.32-17.54-11.63.13-26.06-19.9-26.16-19.75,2.73-1.1,3.7-1.68,4.83-3.78-4.14-.26-4.65-.79-8.25-1.74l-18.93-36.71c.07.05,1.28.59,2.05.69,2.32.74,6.13.13,6.21,0-.08.13-4.19-.94-9.3-4.49.15-.08-.53-6.77-.33-11.09.4-15.22,13.36-9.2,13.41-9.35-2.66,7.64-.06,5.72,2.07.33.2,0,16.07,31.65,22.38,39.14l-3.45,7.28c3.99-.23,5.72-3.63,5.85-3.45,1.48,3.65,7.08,12.1,11.01,20.41,5.39,12.09.36,20.82.36,20.77,1.56,2.82,4.86,6.39,11.02,17.15l-3.44,2.13Z"></path><path class="cls-1" d="m229.49,134.39c-3.9-5.21-31.37-25.36-31.51-25.36-5.64-4.65-28.2-23.74-28.2-23.89l1.71-1.4c7.62,8.18,26.5,22.84,60.02,47.57l-2.01,3.09Z"></path><path class="cls-1" d="m217.83,171.17c-5.98-2.5-11.21-6.28-13.98-6.4-4.47.13-2.2,2.02-5.52,4.17-3.86,2.1-13.8-2.81-20.31-5.18.43-.79,3.12-1.92,5.49-2.79h-9.96c-5.57-2.5-18.14-7.53-28.92-13.15-.43-.11,2.45-3.22,2.07-3.45-.41-.12-4.19,2.68-4.47,2.43-6.36-3.01-11.96-6.1-15.15-8.66,0-.05,1.69-.41,2.76-1.05,1.2-.56,2.76-2.43,2.76-2.43-3.83.54-7.28,2.04-8.97,1.38-10.6-12.72,2.65-14.97,7.56-15.22,2.66-.16,11.19.07,13.8,2.42-.43,2.25-2.02,4.83-2.07,5.54,1.94-.21,2.99-3.29,4.14-4.85,5.47,1.74,17.83,7.17,25.11,12.47,1.48,1.94.56,6.05.69,7.94,0-.2,1.48-1.3,2.07-2.4.87-.97,1.3-3.12,1.38-3.12.2,0,15.18,5.67,22.38,10.04,4.06,2.45,3.73,8.07,5.16,10.37,1.53,2.38,5.93,4.67,14.23,8.23l-.25,3.72Z"></path><path class="cls-1" d="m217.16,203.22c-9.31.04-15.69,1.17-24.35,1.74-19.62,1.02-29.53,1.87-50.25,1.02-7.84-.36-20.13-2.27-20.31-2.4l1.05-3.14c0,.15,11.22,1.97,18.58,2.42,29.5,2.24,68.56-1.81,74.77-2.63l.52,2.99Z"></path><path class="cls-1" d="m358.53,197.93c-.91,7.4-2.79,14.58-4.5,21.85-2.37.27-4.8-.1-7.17-.02,2.61-12.14,4.41-24.44,4.61-36.88.18-11.63-.74-24.4-4.01-35.61-1.86-6.37-5.49-12.05-9.59-17.2-2.53-3.18-5.06-6-8-8.82-3.08-2.95-6.51-4.95-10.43-6.5-24.71-9.76-67.73-17.5-91.85,32.03-.78,1.4-.86,3.78-1.18,5.31-.8,3.78-1.45,7.57-2.04,11.39-1.37,8.73-1.55,16.84-1.22,25.68.16,4.17.39,8.34.83,12.5.35,3.25.83,6.49,1.52,9.69.74,3.47,1.71,6.98,2.09,10.51-.62,0-7.16.27-7.23,0-1.4-5.65-2.76-11.83-4.11-18.65l-.69-3.12c.1.11-.87-9.25-.69-15.22.18-5.98,1.89-15.26,2.07-15.26v-3.8c0-.28,2.35-12.49,5.49-19.75,2.15-4.73,6.55-11.62,6.55-11.78l2.75-3.09c4.22-6.64,19.67-19.88,23.07-21.82l3.42-2.09c0-.13,11.09-4.98,17.22-5.88,18.62-3.39,34.85,2.86,46.12,9.64,0,0,2.55,1.58,2.55,1.58,7.26,5.12,12.44,9.44,17.67,15.46,4.81,5.54,8.69,11.81,11.48,18.6,3.1,7.56,4.17,15.51,5.09,23.57.96,8.34,1.23,16.79.47,25.17-.08.84-.17,1.67-.27,2.5Z"></path><path class="cls-1" d="m328.85,187.35c.36,1.51.64,3.03.82,4.56.27,2.47-.09,5.13.46,7.55-.79-3.5-10.12-41.38-54.34-29.48-14.28,3.75-23.4,27.23-23.4,27.69,19.95-2.99,19.75-2.17,23.04-1.74,2.71.35,3.76-.08,7.23,2.1,3.22,1.71,6.36,2.96,6.54,7.26-.13.18-.84,1.6.35,12.13.05,1.74-.05,3.01-.18,4.45h-6.83c1.05-1.18,1.48-2.35,1.48-2.38,2.94-4.88-3.63-7.87-4.47-12.13,1.2-2.04,1.31-3.73,1.02-4.14,0-.48-1.17-1.58-2.37-2.58-1.2-.97-2.4-1.87-2.42-1.92-8.3-.79-12.24-.79-23.76,2.07-.13.03-1.58,2.71-1.71,10.39-.02,1.66.51,5.78,1.79,10.68h-9.43c-1.15-5.7-1.48-11.58-.64-18.65.89-6.34,2.3-11.52,4.45-16.22l1.58-3.22c2.43-4.42,5.62-8.59,9.82-13.13,4.21-4.57,10.16-7.15,16.04-8.76,3.14-.87,6.36-1.43,9.58-1.76,5.16-.51,10.37-.18,15.48.48,12.31,1.6,24.23,9.75,28.37,21.72.57,1.64,1.08,3.32,1.49,5.02Z"></path><path class="cls-1" d="m266.33,204.97c-.07-1.66,1.27-3,3.1-3.12,1.5.12,2.84,1.46,2.76,3.12.08,1.67-1.26,3.02-2.76,3.11-1.84-.09-3.17-1.44-3.1-3.11h0Z"></path><rect class="cls-1" y="219.23" width="583.71" height="3.39"></rect><rect class="cls-1" y="281.45" width="583.71" height="3.39"></rect><g><path class="cls-1" d="m17.95,272.56h-4.56v-36.72H3.5v-4.24h24.44v4.24h-9.99v36.72Z"></path><path class="cls-1" d="m58.35,248.23v-16.62h4.57v40.96h-4.57v-20.09h-20.97v20.09h-4.57v-40.96h4.57v16.62h20.97Z"></path><path class="cls-1" d="m71.37,231.61h21.24v4.24h-16.67v12.17h16.19v4.24h-16.19v16.08h16.67v4.24h-21.24v-40.96Z"></path><path class="cls-1" d="m148.32,240.57c-3.26-3.37-7.77-5.43-12.49-5.43-9.12,0-16.51,7.93-16.51,16.95s7.44,16.95,16.62,16.95c4.62,0,9.13-2.17,12.38-5.43v5.65c-3.53,2.55-7.87,4.02-12.22,4.02-11.57,0-21.35-9.4-21.35-21.02s9.62-21.35,21.35-21.35c4.56,0,8.58,1.3,12.22,4.02v5.65Z"></path><path class="cls-1" d="m160.69,272.56h-4.56v-40.96h4.56v40.96Z"></path><path class="cls-1" d="m173.57,272.56h-4.57v-40.96h5.92c7.77,0,14.99,2.06,14.99,11.3,0,6.3-3.96,10.76-10.27,11.3l13.04,18.36h-5.59l-12.38-17.98h-1.14v17.98Zm0-22h1.41c5.16,0,10.37-.98,10.37-7.34,0-6.73-4.94-7.38-10.43-7.38h-1.35v14.72Z"></path><path class="cls-1" d="m203.1,272.56h-4.57v-40.96h4.57v40.96Z"></path><path class="cls-1" d="m232.69,235.85v12.17h13.64v4.24h-13.64v20.31h-4.56v-40.96h18.63v4.24h-14.07Z"></path><path class="cls-1" d="m294.71,252.14c0,11.79-9.67,21.13-21.35,21.13s-21.35-9.35-21.35-21.13,9.67-21.24,21.35-21.24,21.35,9.51,21.35,21.24Zm-38.13-.05c0,9.24,7.49,16.95,16.78,16.95s16.79-7.71,16.79-16.95-7.39-16.95-16.79-16.95-16.78,7.66-16.78,16.95Z"></path><path class="cls-1" d="m305.34,256c0,3.04-.11,6.52,1.8,9.13,1.79,2.5,5.27,3.91,8.25,3.91s6.14-1.36,8.04-3.64c2.17-2.61,2-6.2,2-9.4v-24.39h4.57v25.64c0,4.46-.32,7.99-3.59,11.36-2.82,3.04-6.9,4.67-11.02,4.67-3.86,0-7.82-1.47-10.59-4.18-3.58-3.42-4.02-7.17-4.02-11.85v-25.64h4.56v24.39Z"></path><path class="cls-1" d="m338.36,229.87l31.94,33.47v-31.72h4.57v42.81l-31.94-33.41v31.56h-4.56v-42.7Z"></path><path class="cls-1" d="m383.37,231.61h7.71c6.14,0,11.14.82,15.97,4.94,4.67,4.02,6.79,9.51,6.79,15.59s-2.17,11.24-6.68,15.26c-4.89,4.35-9.78,5.16-16.19,5.16h-7.6v-40.96Zm7.87,36.72c4.99,0,9.18-.7,12.93-4.24,3.37-3.15,5.1-7.44,5.1-12s-1.79-9.18-5.32-12.28c-3.75-3.31-7.87-3.97-12.71-3.97h-3.31v32.48h3.31Z"></path><path class="cls-1" d="m426.32,260.94l-4.94,11.62h-5l18.9-42.91,18.42,42.91h-5.05l-4.83-11.62h-17.49Zm8.86-20.64l-7.01,16.4h13.85l-6.84-16.4Z"></path><path class="cls-1" d="m469,272.56h-4.57v-36.72h-9.88v-4.24h24.45v4.24h-10v36.72Z"></path><path class="cls-1" d="m488.33,272.56h-4.57v-40.96h4.57v40.96Z"></path><path class="cls-1" d="m537.26,252.14c0,11.79-9.67,21.13-21.35,21.13s-21.35-9.35-21.35-21.13,9.67-21.24,21.35-21.24,21.35,9.51,21.35,21.24Zm-38.13-.05c0,9.24,7.5,16.95,16.78,16.95s16.79-7.71,16.79-16.95-7.39-16.95-16.79-16.95-16.78,7.66-16.78,16.95Z"></path><path class="cls-1" d="m543.71,229.87l31.94,33.47v-31.72h4.57v42.81l-31.94-33.41v31.56h-4.56v-42.7Z"></path></g><path class="cls-1" d="m339.11,202.86c0,2-.8,18.6-2.35,18.6l-3.02-.19c2.2,0,3.31-22.34,3.15-24.41-.71-9.13-3.77-18.43-8.89-26.15-4.63-6.97-13.1-15.22-21.92-15.73-12.54-.71-17.32,3.83-18.93,3.83-.61,0-8.05-4.57-17.71-3.67-6.77.63-13.53,3.5-18.7,7.91-4.54,3.87-10.36,10.04-12.37,15.7-2.9,8.18-3.89,16.88-3.76,25.53.03,1.92.74,16.03,2.99,16.54-1.04-.23-2.1-.42-3.15-.56-1.78-.22-2.09-15.82-2.09-17.59,0-16.87,5.47-32.25,14.41-43.7,7.21-18.01,23-28.18,42.73-27.08,17.96,1,31.94,11.89,38,28.55,2.04,5.6,4.52,10.91,6.99,16.32,3.65,7.97,4.61,17.41,4.61,26.09Z"></path><path class="cls-1" d="m334.52,176.72c-.06-.09-.18-.26-.41-.55-.51-.64-2.19-4.67-3.44-7.46.79,1.26,1.43,2.27,1.58,2.59.84,1.77,1.59,3.58,2.27,5.42Z"></path></g></svg>